# xmcd
#
# Track frame offsets: 
#        150
#        19239
#        39746
#        58840
#
# Disc length: 1014 seconds
#
# Revision: 2
# Processed by: cddbd v1.5.2PL0 Copyright (c) Steve Scherf et al.
# Submitted via: ExactAudioCopyFreeDBPlugin 1.0
#
DISCID=3203f404
DTITLE=譚詠麟 - ALAN TAM REMIX
DYEAR=1989
DGENRE=Pop
TTITLE0=你知我知
TTITLE1=愛諗
TTITLE2=應有此報
TTITLE3=獨醉街頭
EXTD=
EXTT0=
EXTT1=
EXTT2=
EXTT3=
PLAYORDER=
